# xmcd
#
# Track frame offsets: 
#        150
#        12837
#        30330
#        43875
#        60298
#        79247
#        96681
#        112270
#        131642
#        149288
#        164289
#        179290
#        196348
#
# Disc length: 2874 seconds
#
# Revision: 0
# Processed by: cddbd v1.5.2PL0 Copyright (c) Steve Scherf et al.
# Submitted via: ExactAudioCopy v1.0b1
#
DISCID=b30b380d
DTITLE=Mark Chesnutt - Tradition Lives
DYEAR=2016
DGENRE=Country
TTITLE0=I've Got a Quarter in My Pocket
TTITLE1=Is It Still Cheating
TTITLE2=Lonely Ain't the Only Game in Town
TTITLE3=Oughta Miss Me by Now
TTITLE4=Neither Did I
TTITLE5=So You Can't Hurt Me Anymore
TTITLE6=You Moved up in Your World
TTITLE7=Look at Me Know
TTITLE8=Losing You All over Again
TTITLE9=Never Been to Texas
TTITLE10=What I Heard
TTITLE11=Hot
TTITLE12=There Won't Be Another Now
EXTD=
EXTT0=
EXTT1=
EXTT2=
EXTT3=
EXTT4=
EXTT5=
EXTT6=
EXTT7=
EXTT8=
EXTT9=
EXTT10=
EXTT11=
EXTT12=
PLAYORDER=
